# xmcd
#
# Track frame offsets: 
#        150
#        22385
#        40582
#        69702
#
# Disc length: 1192 seconds
#
# Revision: 0
# Processed by: cddbd v1.5.2PL0 Copyright (c) Steve Scherf et al.
# Submitted via: ExactAudioCopy v0.99pb5
#
DISCID=3304a604
DTITLE=Absent Minded - Alright
DYEAR=1995
DGENRE=RAP
TTITLE0=Alright (Concrete Foundation Remix)
TTITLE1=Alright (Radio Version)
TTITLE2=Alright (Sidestep Club Mix)
TTITLE3=Alright (Album Version)
EXTD=
EXTT0=
EXTT1=
EXTT2=
EXTT3=
PLAYORDER=
